<svg width="765" height="113" viewBox="0 0 765 113" fill="none" xmlns="http://www.w3.org/2000/svg">
<path d="M156.566 3.13403L105.888 55.9915L105.854 56.0266L105.888 56.0608L156.565 108.918H0.0498047V3.13403H156.566Z" fill="#004A82" stroke="#FF8A00" stroke-width="0.1"/>
<path d="M249.858 3.27441V21.9268H193.832V44.5088H245.261V62.7979H193.832V90.125H252.446V109.059H172.31V3.27441H249.858Z" fill="#004A82" stroke="#FF8A00" stroke-width="0.1"/>
<path d="M292.544 3.27441L334.698 77.168L334.791 77.332V3.27441H355.305V109.059H333.257L290.036 33.875L289.943 33.7129V109.059H269.422V3.27441H292.544Z" fill="#004A82" stroke="#FF8A00" stroke-width="0.1"/>
<path d="M452.854 3.27441V21.9268H421.178V109.059H399.003V21.9268H367.186V3.27441H452.854Z" fill="#004A82" stroke="#FF8A00" stroke-width="0.1"/>
<path d="M510.259 3.27441L547.721 109.059H523.833L517.023 87.3232L517.012 87.2881H477.938L477.926 87.3223L470.604 109.059H447.584L485.334 3.27441H510.259ZM497.531 27.4189L483.887 69.083L483.866 69.1484H510.868L510.846 69.083L497.625 27.4189L497.578 27.2715L497.531 27.4189Z" fill="#004A82" stroke="#FF8A00" stroke-width="0.1"/>
<path d="M613.656 3.27441L615.027 3.31152C621.56 3.53251 626.691 4.378 630.422 5.85254L630.802 6.00781C634.772 7.67498 638.14 10.1422 640.913 13.3857C643.064 15.9011 644.795 18.6632 646.112 21.6787L646.37 22.2861C647.706 25.5283 648.375 29.2339 648.375 33.3955C648.375 38.4138 647.104 43.3507 644.569 48.2061C642.037 53.0551 637.864 56.4866 632.029 58.4922L631.902 58.5361L632.027 58.5859C636.753 60.4813 640.135 63.1575 642.184 66.5967L642.379 66.9316C644.414 70.5335 645.431 76.0463 645.431 83.46V90.5713C645.431 95.1053 645.599 98.2781 645.934 100.086L646.003 100.43C646.582 103.159 647.921 105.175 650.029 106.474V109.059H625.766C625.094 106.728 624.626 104.848 624.339 103.419C623.76 100.454 623.454 97.422 623.405 94.3076L623.265 84.4688H623.264C623.215 81.0886 622.882 78.2701 622.263 76.0146C621.645 73.7596 620.74 72.0635 619.545 70.9307C617.157 68.6677 612.699 67.5352 606.19 67.5352H583.295V109.059H561.773V3.27441H613.656ZM583.295 50.1143H608.415C613.394 50.1142 617.141 49.5357 619.639 48.3818C621.852 47.3731 623.512 45.8694 624.618 43.8721C625.724 41.8753 626.274 39.3881 626.274 36.4141C626.274 30.1872 624.276 25.9289 620.252 23.6514L619.856 23.4375C617.456 22.1917 613.849 21.5635 609.059 21.5635H583.295V50.1143Z" fill="#004A82" stroke="#FF8A00" stroke-width="0.1"/>
<path d="M714.291 0.0498047C729.412 0.0498249 740.965 4.16497 748.949 12.3877L748.951 12.3896C759.62 22.0925 764.95 36.6379 764.95 56.0264C764.95 75.0257 759.62 89.5713 748.95 99.6631L748.949 99.665C740.965 107.888 729.412 112.002 714.291 112.002C699.169 112.002 687.616 107.888 679.632 99.665L679.63 99.6631C668.919 89.5712 663.556 75.0254 663.556 56.0264C663.556 36.638 668.92 22.0925 679.63 12.3896L679.632 12.3877C687.616 4.16495 699.169 0.0498047 714.291 0.0498047ZM714.291 18.6943C705.512 18.6943 698.511 21.9331 693.275 28.4111V28.4121C688.048 34.89 685.442 44.097 685.442 56.0264C685.442 67.9557 688.048 77.1628 693.275 83.6406C698.511 90.1189 705.512 93.3584 714.291 93.3584C723.069 93.3584 730.037 90.119 735.199 83.6406C740.351 77.1628 742.932 67.9557 742.932 56.0264C742.932 44.1383 740.351 34.9479 735.199 28.4453C730.037 21.942 723.069 18.6944 714.291 18.6943Z" fill="#004A82" stroke="#FF8A00" stroke-width="0.1"/>
</svg>
